{"accessors" : [{"bufferView" : 0, "byteOffset" : 0, "componentType" : 5123, "count" : 1938, "type" : "SCALAR", "max" : [1579], "min" : [0]}, {"bufferView" : 1, "byteOffset" : 0, "componentType" : 5126, "count" : 1580, "type" : "VEC3", "max" : [2.3385870456695557, 2.2006819248199463, 4.150732040405273], "min" : [-2.3385870456695557, -1.7324769496917725, -4.232285022735596], "name" : "POSITION"}, {"bufferView" : 1, "byteOffset" : 12, "componentType" : 5126, "count" : 1580, "type" : "VEC2", "max" : [1, -0], "min" : [-0.23489999771118164, -1.1328719854354858], "name" : "TEXCOORD_0"}], "asset" : {"generator" : "Aspose.3D 22.1", "version" : "2.0"}, "buffers" : [{"uri" : "data:application/octet-stream;base64,", "byteLength" : 42644}], "bufferViews" : [{"buffer" : 0, "byteOffset" : 0, "byteLength" : 3876, "target" : 34963}, {"buffer" : 0, "byteOffset" : 3880, "byteLength" : 38760, "byteStride" : 20, "target" : 34962}], "meshes" : [{"primitives" : [{"attributes" : {"POSITION" : 1, "TEXCOORD_0" : 2}, "indices" : 0, "mode" : 4}], "name" : ""}], "nodes" : [{"mesh" : 0, "name" : "Snake_head_2"}], "scene" : 0, "scenes" : [{"nodes" : [0]}]}